Coordinates
version=1
nRows=19
nColumns=18
inDegrees=yes

Units are S.I. units (second, meters, Newtons, ...)
If the header above contains a line with 'inDegrees', this indicates whether rotational values are in degrees (yes) or radians (no).

endheader
time	ground_thorax_rot_x	ground_thorax_rot_y	ground_thorax_rot_z	ground_thorax_tx	ground_thorax_ty	ground_thorax_tz	clav_prot	clav_elev	scapula_abduction	scapula_elevation	scapula_upward_rot	scapula_winging	plane_elv	shoulder_elv	axial_rot	elbow_flexion	pro_sup
      0.00000000	      3.12394161	     -4.50339720	     -8.58459956	     -0.00529119	      0.00403591	      0.00207358	    -20.94484542	     -3.87758194	    -10.84870533	     -3.10299110	     11.10922519	      5.64456731	    -21.66665148	     17.46835675	     52.70444239	      0.00000000	     34.32000000
      0.01000000	      3.12391980	     -4.50333369	     -8.58460351	     -0.00532656	      0.00398748	      0.00213790	    -20.94489808	     -3.87763414	    -10.84865452	     -3.10306270	     11.10942777	      5.64457484	    -21.66671138	     17.46874429	     52.70449118	      0.00000000	     34.32000000
      0.02000000	      3.12400981	     -4.50339563	     -8.58467351	     -0.00537137	      0.00393548	      0.00219867	    -20.94496699	     -3.87769534	    -10.84863724	     -3.10317305	     11.10964519	      5.64454220	    -21.66680929	     17.46931285	     52.70455047	      0.00000000	     34.32000000
      0.03000000	      3.12462757	     -4.50376354	     -8.58469645	     -0.00540386	      0.00387666	      0.00219782	    -20.94504973	     -3.87791439	    -10.84873021	     -3.10334411	     11.10963633	      5.64461411	    -21.66696171	     17.46971934	     52.70460343	      0.00000000	     34.32000000
      0.04000000	      3.12546978	     -4.50410067	     -8.58459580	     -0.00539461	      0.00383360	      0.00216235	    -20.94511577	     -3.87823769	    -10.84882268	     -3.10356754	     11.10952848	      5.64473974	    -21.66711787	     17.46993938	     52.70465188	      0.00000000	     34.32000000
      0.05000000	      3.12584069	     -4.50374456	     -8.58429485	     -0.00533186	      0.00382389	      0.00217151	    -20.94512064	     -3.87851816	    -10.84863843	     -3.10384259	     11.10974398	      5.64476425	    -21.66715655	     17.47025813	     52.70471696	      0.00000000	     34.32000000
      0.06000000	      3.12581558	     -4.50262251	     -8.58372485	     -0.00524382	      0.00382009	      0.00222638	    -20.94505499	     -3.87882987	    -10.84810594	     -3.10424341	     11.11034754	      5.64469116	    -21.66703502	     17.47073880	     52.70480538	      0.00000000	     34.32000000
      0.07000000	      3.16020895	     -4.45239647	     -8.58174609	     -0.00529677	      0.00387309	      0.00215931	    -20.94501237	     -3.90272582	    -10.82404732	     -3.13132986	     11.14221885	      5.64326550	    -21.67161208	     17.52194991	     52.71285406	      0.00000000	     34.32000000
      0.08000000	      3.16065612	     -4.45238204	     -8.58192015	     -0.00526502	      0.00386723	      0.00213881	    -20.94502782	     -3.90282358	    -10.82411926	     -3.13137198	     11.14209376	      5.64332707	    -21.67178275	     17.52214437	     52.71288822	      0.00000000	     34.32000000
      0.09000000	      3.16086653	     -4.45251030	     -8.58224109	     -0.00523405	      0.00390783	      0.00208374	    -20.94506852	     -3.90277251	    -10.82428856	     -3.13129355	     11.14194163	      5.64335538	    -21.67191990	     17.52222612	     52.71291933	      0.00000000	     34.32000000
      0.10000000	      3.16086024	     -4.45260206	     -8.58256055	     -0.00519101	      0.00396944	      0.00201381	    -20.94510547	     -3.90263986	    -10.82447887	     -3.13114884	     11.14177768	      5.64336312	    -21.67200370	     17.52214433	     52.71294538	      0.00000000	     34.32000000
      0.11000000	      3.16106552	     -4.45300907	     -8.58298623	     -0.00519184	      0.00398047	      0.00196003	    -20.94519681	     -3.90256035	    -10.82483519	     -3.13100696	     11.14146236	      5.64342993	    -21.67219462	     17.52206598	     52.71296034	      0.00000000	     34.32000000
      0.12000000	      3.16138878	     -4.45404222	     -8.58383620	     -0.00528221	      0.00393527	      0.00197027	    -20.94541986	     -3.90240736	    -10.82548840	     -3.13079254	     11.14106075	      5.64350974	    -21.67263199	     17.52240394	     52.71297140	      0.00000000	     34.32000000
      0.13000000	      3.16846082	     -4.48012460	     -8.60661446	     -0.00525597	      0.00387466	      0.00210289	    -20.95226039	     -3.89646768	    -10.84342169	     -3.12443198	     11.13306362	      5.64448664	    -21.68744083	     17.53870610	     52.71410408	      0.00000000	     34.32000000
      0.14000000	      3.16780880	     -4.47907523	     -8.60626868	     -0.00521233	      0.00389662	      0.00219987	    -20.95220665	     -3.89651658	    -10.84296013	     -3.12463935	     11.13369798	      5.64433209	    -21.68732319	     17.53917447	     52.71417452	      0.00000000	     34.32000000
      0.15000000	      3.16602496	     -4.43139398	     -8.59354275	     -0.00520595	      0.00394752	      0.00214819	    -20.94607849	     -3.90647100	    -10.82052783	     -3.13643464	     11.15011250	      5.64236598	    -21.68241326	     17.54440372	     52.71686288	      0.00000000	     34.32000000
      0.16000000	      3.16621593	     -4.43039207	     -8.59329901	     -0.00511438	      0.00393903	      0.00214601	    -20.94591567	     -3.90664080	    -10.82016215	     -3.13656333	     11.15017327	      5.64241063	    -21.68239801	     17.54434728	     52.71689260	      0.00000000	     34.32000000
      0.17000000	      3.16627571	     -4.43026642	     -8.59378250	     -0.00514508	      0.00393553	      0.00214310	    -20.94591880	     -3.90653034	    -10.82022270	     -3.13646543	     11.15012553	      5.64239169	    -21.68259146	     17.54464327	     52.71692049	      0.00000000	     34.32000000
      0.18000000	      3.16581497	     -4.43053437	     -8.59478146	     -0.00521881	      0.00396343	      0.00217097	    -20.94601845	     -3.90604451	    -10.82049309	     -3.13611058	     11.15017556	      5.64224890	    -21.68288211	     17.54535379	     52.71695936	      0.00000000	     34.32000000
